<svg xmlns="http://www.w3.org/2000/svg" viewBox="0 0 200 200" role="img" aria-labelledby="title desc">
  <title id="title">LeadTracker</title>
  <desc id="desc">Logo carré aux coins arrondis avec monogramme LT et flèche de progression</desc>
  <defs>
    <linearGradient id="bg" x1="32" y1="24" x2="168" y2="176" gradientUnits="userSpaceOnUse">
      <stop offset="0" stop-color="#0a66c2"/>
      <stop offset="1" stop-color="#0ea5e9"/>
    </linearGradient>
    <linearGradient id="accent" x1="64" y1="62" x2="160" y2="152" gradientUnits="userSpaceOnUse">
      <stop offset="0" stop-color="#22c55e"/>
      <stop offset="1" stop-color="#16a34a"/>
    </linearGradient>
  </defs>
  <rect x="16" y="16" width="168" height="168" rx="32" fill="url(#bg)"/>
  <rect x="32" y="32" width="136" height="136" rx="28" fill="#0b1f3a" opacity="0.08"/>
  <rect x="46" y="50" width="18" height="100" rx="8" fill="#f8fafc"/>
  <rect x="70" y="132" width="84" height="18" rx="9" fill="#f8fafc"/>
  <path d="M86 68h64c7.7 0 14 6.3 14 14v30.5c0 7.7-6.3 14-14 14h-18.5l10.3 10.3c2.7 2.7 2.7 7 0 9.6-2.7 2.7-7 2.7-9.6 0l-22.4-22.4a8 8 0 0 1 5.7-13.7H150V86H86c-3.9 0-7-3.1-7-7s3.1-7 7-7Z" fill="url(#accent)"/>
  <circle cx="142" cy="78" r="8" fill="#f8fafc"/>
  <circle cx="110" cy="110" r="7" fill="#f8fafc" opacity="0.75"/>
  <circle cx="76" cy="140" r="6" fill="#0b1f3a" opacity="0.18"/>
</svg>
